<?xml version="1.0" encoding="utf-8"?>
<!-- Generator: Adobe Illustrator 16.0.4, SVG Export Plug-In . SVG Version: 6.00 Build 0)  -->
<!DOCTYPE svg PUBLIC "-//W3C//DTD SVG 1.1//EN" "http://www.w3.org/Graphics/SVG/1.1/DTD/svg11.dtd">
<svg version="1.1" id="Layer_1" xmlns="http://www.w3.org/2000/svg" xmlns:xlink="http://www.w3.org/1999/xlink" x="0px" y="0px" fill="#4d8bf3"
	 width="50px" height="50px" viewBox="0 0 50 50" enable-background="new 0 0 50 50" xml:space="preserve">
<path d="M43.047,37.457l-0.145,0.174C38.128,43.358,31.77,46.514,25,46.514c-6.77,0-13.128-3.155-17.903-8.883l-0.144-0.174
	l0.034-0.223c0.922-6.014,4.064-10.845,8.847-13.606l0.34-0.196l0.271,0.284c2.259,2.37,5.297,3.674,8.554,3.674
	s6.295-1.305,8.554-3.674l0.271-0.284l0.34,0.196c4.783,2.761,7.925,7.592,8.847,13.606L43.047,37.457z M25,24.975
	c5.924,0,10.744-4.82,10.744-10.744S30.924,3.486,25,3.486S14.256,8.307,14.256,14.23S19.076,24.975,25,24.975z"/>
</svg>
